# xmcd
#
# Track frame offsets: 
#        180
#        21106
#        43246
#        64670
#        82552
#        94649
#        113459
#        130976
#        145938
#        178960
#        199987
#        214697
#        246723
#
# Disc length: 3601 seconds
#
# Revision: 0
# Processed by: cddbd v1.5.1PL0 Copyright (c) Steve Scherf et al.
# Submitted via: ExactAudioCopy v0.95a5
#
DISCID=b80e0f0d
DTITLE=Trudy Fair - Kick of Fire
DYEAR=2001
DGENRE=Comedy
TTITLE0=Kick Of Fire
TTITLE1=Simmental Yearlings
TTITLE2=Gone To Get A Bull
TTITLE3=Whose Sorry Cow
TTITLE4=Boss Cross Cow
TTITLE5=Nevertheless
TTITLE6=Ye Foragemen of Overton
TTITLE7=Sleepy Time Cow
TTITLE8=Road To The Cow Show
TTITLE9=Homer The Range Bull
TTITLE10=By  New Heifer
TTITLE11=Moolight Serenade
TTITLE12=Boogie Woogie Bull Calf
EXTD=
EXTT0=
EXTT1=
EXTT2=
EXTT3=
EXTT4=
EXTT5=
EXTT6=
EXTT7=
EXTT8=
EXTT9=
EXTT10=
EXTT11=
EXTT12=
PLAYORDER=
